<svg version="1.1" baseProfile="tiny" id="Layer_1" xmlns="http://www.w3.org/2000/svg" xmlns:xlink="http://www.w3.org/1999/xlink"
	 x="0px" y="0px" viewBox="0 0 98 88" overflow="visible" xml:space="preserve">
<g id="Grupo_40" transform="translate(-321.015 -253.595)">
	<path id="Trazado_2" fill="#FFFFFF" d="M357.2,341.6c-20.6,0-36.2-12.6-36.2-31.1s14.6-31.1,35.2-31.1c20.4,0,35,12.6,35,31.1
		c0,1.9-0.1,3.7-0.3,5.6h-50.4c2,6.2,7.7,9.2,15.8,9.2c6.5,0,10.7-1.5,12.6-4.5h20.8C386.3,333.5,373.7,341.6,357.2,341.6z
		 M371.2,303.6c-2.2-5.3-7.3-8.4-14.9-8.4c-8,0-13.1,3.1-15.4,8.4H371.2z"/>
	<path id="Trazado_3" fill="#FFFFFF" d="M374.3,273.5c11.2-1.4,20.7-10,22.3-19.9h0.2c1.6,10,11.1,18.5,22.3,19.9v0.2
		c-11.2,1.4-20.7,10.1-22.3,19.9h-0.2c-1.6-9.9-11.1-18.5-22.3-19.9V273.5z"/>
</g>
</svg>
