<svg xmlns="http://www.w3.org/2000/svg" viewBox="0 0 1601.45 382.2">
  <defs>
    <style>
      .cls-1 {
        fill: #0a0203;
      }

      .cls-1, .cls-2 {
        stroke-width: 0px;
      }

      .cls-2 {
        fill: #fff;
      }
    </style>
  </defs>
  <g id="Language">
    <g id="EN">
      <g>
        <g>
          <path class="cls-2" d="M853.52,135.96h-32.62v43.66h37.11v18.96h-58.93V61.14h56.49v18.94h-34.67v37.75h32.62v18.13Z"/>
          <path class="cls-2" d="M946.46,169.61c0,10.79.41,20.58.81,28.96h-18.97l-1.21-10.41h-.41c-3.87,5.9-11.83,12.03-22.24,12.03-18.13,0-25.47-13.66-25.47-39.56v-61.39h21.8v58.74c0,14.27,2.45,24.05,11.43,24.05,6.72,0,10.18-5.71,11.2-9.78.82-2.24,1.24-5.29,1.24-8.55v-64.46h21.82v70.36Z"/>
          <path class="cls-2" d="M974.71,127.21c0-9.17-.41-19.58-.81-27.96h18.94l1.22,14.9h.62c3.86-9.97,12.03-16.52,20.19-16.52,2.04,0,3.25.19,4.69.39v21.65c-1.44-.21-2.85-.21-4.69-.21-7.55,0-15.09,6.31-17.55,17.11-.4,2.26-.81,5.71-.81,9.38v52.62h-21.8v-71.36Z"/>
          <path class="cls-2" d="M1070.76,200.19c-21.02,0-35.49-17.54-35.49-50.97,0-36.1,17.74-51.59,36.29-51.59,20.8,0,35.07,18.14,35.07,50.96,0,40.17-20.79,51.6-35.67,51.6h-.2ZM1071.56,183.46c10.81,0,13.26-19.57,13.26-34.66s-2.45-34.45-13.66-34.45c-11.82,0-14.07,19.99-14.07,34.45,0,16.73,2.85,34.66,14.28,34.66h.19Z"/>
          <path class="cls-2" d="M1130.7,130.46c0-13.47-.4-22.83-.81-31.21h18.96l1.22,12.06h.41c4.7-9.41,12.23-13.67,20.8-13.67,19.77,0,29.96,21.2,29.96,50.96,0,36.31-15.48,51.6-31.6,51.6-8.77,0-14.07-5.29-16.92-10.4h-.41v47.91h-21.62v-107.24ZM1152.31,162.27c0,3.05.41,6.11,1.02,8.35,2.65,9.58,7.75,11.63,11.42,11.63,11,0,14.67-15.71,14.67-33.24,0-19.77-4.69-33.02-14.67-33.02-5.51,0-10.4,6.13-11.63,12.86-.61,2.21-.81,4.66-.81,7.32v26.1Z"/>
          <path class="cls-2" d="M1243.26,154.74c.2,22.22,10.41,28.32,22.03,28.32,7.32,0,13.46-1.61,17.73-3.44l3.27,15.49c-6.32,2.85-15.92,4.66-24.89,4.66-25.69,0-39.35-18.54-39.35-49.32,0-32.82,15.69-52.82,36.91-52.82s31.4,18.98,31.4,45.44c0,5.72-.21,9.01-.62,11.66h-46.48ZM1270.17,139.22c.2-15.88-5.1-25.28-12.84-25.28-9.37,0-13.66,13.68-14.07,25.28h26.91Z"/>
          <path class="cls-2" d="M1374.52,175.93c0,7.75.21,16.12,1.22,22.64h-19.57l-1.22-10.02h-.41c-5.09,7.58-12.43,11.64-20.99,11.64-14.28,0-25.08-11.83-25.08-29.37,0-25.47,21.6-36.29,44.03-36.47v-2.65c0-10.41-4.07-17.54-14.89-17.54-7.12,0-13.05,2.05-18.56,5.52l-4.06-14.9c4.89-3.06,15.28-7.13,27.31-7.13,25.68,0,32.21,17.55,32.21,38.72v39.57ZM1353.12,148.8c-8.56.21-23.86,2.47-23.86,19.79,0,11.22,5.92,15.29,10.82,15.29,5.5,0,10.6-3.69,12.43-11.42.41-1.44.61-3.28.61-5.09v-18.58Z"/>
          <path class="cls-2" d="M1402.33,127.21c0-11.22-.42-19.15-.82-27.96h18.95l1.01,11.66h.41c4.69-7.97,13.04-13.27,23.44-13.27,16.72,0,25.49,12.84,25.49,35.87v65.06h-21.82v-63c0-10.01-2.04-19.58-11.62-19.58-5.3,0-10.2,4.07-12.23,12.22-.61,2.06-1.02,5.3-1.02,8.98v61.38h-21.79v-71.36Z"/>
        </g>
        <g>
          <path class="cls-2" d="M799.08,243.46c6.93-1.63,15.89-2.65,25.48-2.65,14.49,0,26.34,2.65,34.47,10.41,7.32,6.93,11.01,17.53,11.01,29.35,0,13.87-3.86,23.26-10.21,30.58-8.16,9.58-21.4,14.29-33.04,14.29-2.24,0-4.09,0-6.11-.22v53.64h-21.6v-135.39ZM820.68,307.28c1.64.42,3.05.42,5.3.42,14.3,0,22.24-9.8,22.24-25.52,0-12.81-5.3-23.64-20.02-23.64-3.04,0-5.7.39-7.52,1.02v47.72Z"/>
          <path class="cls-2" d="M951.66,356.21c0,7.75.19,16.12,1.22,22.64h-19.57l-1.2-10.02h-.42c-5.09,7.58-12.44,11.64-21.02,11.64-14.28,0-25.07-11.83-25.07-29.37,0-25.47,21.63-36.29,44.03-36.47v-2.65c0-10.41-4.09-17.54-14.89-17.54-7.12,0-13.02,2.05-18.53,5.52l-4.09-14.9c4.89-3.06,15.28-7.13,27.32-7.13,25.69,0,32.21,17.55,32.21,38.72v39.57ZM930.27,329.09c-8.59.21-23.88,2.47-23.88,19.79,0,11.22,5.92,15.29,10.81,15.29,5.5,0,10.62-3.69,12.45-11.42.41-1.44.62-3.28.62-5.09v-18.58Z"/>
          <path class="cls-2" d="M979.47,307.5c0-9.17-.42-19.58-.84-27.96h18.98l1.22,14.9h.6c3.87-9.97,12.04-16.52,20.23-16.52,2,0,3.24.19,4.65.39v21.65c-1.41-.21-2.83-.21-4.65-.21-7.59,0-15.12,6.31-17.58,17.11-.4,2.26-.82,5.71-.82,9.38v52.62h-21.79v-71.36Z"/>
          <path class="cls-2" d="M1043.81,237.77h21.83v141.08h-21.83v-141.08Z"/>
          <path class="cls-2" d="M1104.38,266.3c-6.33,0-11.43-5.1-11.43-12.66s5.29-12.64,11.62-12.64c6.96,0,11.83,4.91,11.83,12.64s-4.87,12.66-11.83,12.66h-.19ZM1093.96,378.86v-99.32h21.83v99.32h-21.83Z"/>
          <path class="cls-2" d="M1203.9,356.21c0,7.75.21,16.12,1.22,22.64h-19.6l-1.22-10.02h-.39c-5.11,7.58-12.43,11.64-20.99,11.64-14.28,0-25.1-11.83-25.1-29.37,0-25.47,21.62-36.29,44.05-36.47v-2.65c0-10.41-4.07-17.54-14.87-17.54-7.13,0-13.06,2.05-18.57,5.52l-4.07-14.9c4.91-3.06,15.29-7.13,27.3-7.13,25.72,0,32.25,17.55,32.25,38.72v39.57ZM1182.47,329.09c-8.55.21-23.84,2.47-23.84,19.79,0,11.22,5.91,15.29,10.8,15.29,5.5,0,10.6-3.69,12.43-11.42.42-1.44.61-3.28.61-5.09v-18.58Z"/>
          <path class="cls-2" d="M1231.64,307.5c0-11.22-.42-19.15-.8-27.96h18.94l1.01,11.86h.42c4.65-7.55,12.82-13.47,23.24-13.47s17.54,4.9,21.19,14.27h.41c2.45-4.27,6.11-8.14,9.78-10.6,4.09-2.45,8.77-3.67,13.87-3.67,15.89,0,24.88,12.24,24.88,36.71v64.22h-21.63v-60.15c0-12.04-1.61-22.64-11.2-22.64-5.71,0-10.2,4.28-12.02,11.64-.62,2-.84,4.86-.84,7.94v63.21h-21.59v-63.64c0-8.74-1.24-19.15-11.01-19.15-5.33,0-10.44,4.07-12.23,12.03-.42,2.25-.85,5.11-.85,7.96v62.8h-21.59v-71.36Z"/>
          <path class="cls-2" d="M1389.96,335.02c.19,22.22,10.38,28.32,22.02,28.32,7.31,0,13.44-1.61,17.73-3.44l3.25,15.49c-6.33,2.85-15.89,4.66-24.87,4.66-25.71,0-39.37-18.54-39.37-49.32,0-32.82,15.72-52.82,36.91-52.82s31.4,18.98,31.4,45.44c0,5.72-.21,9.01-.61,11.66h-46.46ZM1416.85,319.51c.21-15.88-5.09-25.28-12.83-25.28-9.4,0-13.66,13.68-14.06,25.28h26.89Z"/>
          <path class="cls-2" d="M1460.58,307.5c0-11.22-.42-19.15-.81-27.96h18.98l1,11.66h.42c4.66-7.97,13.02-13.27,23.44-13.27,16.71,0,25.47,12.84,25.47,35.87v65.06h-21.8v-63c0-10.01-2.04-19.58-11.62-19.58-5.32,0-10.18,4.07-12.24,12.22-.59,2.06-1,5.3-1,8.98v61.38h-21.83v-71.36Z"/>
          <path class="cls-2" d="M1582.3,254.87v24.67h19.16v15.73h-19.16v51.57c0,12.23,4.71,15.28,10.21,15.28,2.44,0,4.47-.21,6.72-.6l.4,16.92c-3.25,1.02-8.15,1.63-14.26,1.63-6.92,0-13.23-1.81-17.54-6.1-4.91-4.91-7.35-12.06-7.35-26.91v-51.78h-11.82v-15.73h11.82v-17.11l21.82-7.56Z"/>
        </g>
      </g>
    </g>
  </g>
  <g id="Main_Logo_Frame" data-name="Main Logo Frame">
    <g id="mute">
      <rect class="cls-2" x="372.15" y="162.75" width="324.99" height="219.45"/>
      <g id="flag">
        <rect class="cls-2" x="376.11" y="166.71" width="317.06" height="211.53"/>
        <g>
          <polygon class="cls-1" points="534.48 189.7 537.5 199.09 547.34 199.04 539.34 204.8 542.44 214.17 534.48 208.33 526.55 214.17 529.63 204.8 521.63 199.04 531.47 199.09 534.48 189.7"/>
          <polygon class="cls-1" points="534.48 330.81 537.5 340.17 547.34 340.12 539.34 345.9 542.44 355.27 534.48 349.44 526.55 355.27 529.63 345.9 521.63 340.12 531.47 340.17 534.48 330.81"/>
          <polygon class="cls-1" points="499.39 199.09 502.39 208.46 512.24 208.44 504.27 214.18 507.35 223.53 499.39 217.71 491.46 223.53 494.53 214.18 486.56 208.44 496.4 208.46 499.39 199.09"/>
          <polygon class="cls-1" points="473.56 224.99 476.56 234.37 486.41 234.3 478.41 240.07 481.48 249.42 473.56 243.6 465.62 249.42 468.71 240.07 460.68 234.3 470.56 234.37 473.56 224.99"/>
          <polygon class="cls-1" points="464.04 260.19 467.02 269.54 476.88 269.49 468.89 275.27 471.94 284.61 464.04 278.78 456.09 284.61 459.19 275.27 451.17 269.49 461.02 269.54 464.04 260.19"/>
          <polygon class="cls-1" points="473.45 295.36 476.47 304.78 486.29 304.7 478.3 310.47 481.41 319.82 473.45 313.97 465.51 319.82 468.61 310.47 460.59 304.72 470.44 304.78 473.45 295.36"/>
          <polygon class="cls-1" points="499.39 321.25 502.39 330.63 512.24 330.59 504.27 336.34 507.35 345.7 499.39 339.88 491.46 345.7 494.53 336.34 486.56 330.59 496.4 330.63 499.39 321.25"/>
          <polygon class="cls-1" points="569.62 199.09 566.62 208.46 556.75 208.44 564.75 214.18 561.67 223.53 569.62 217.71 577.55 223.53 574.48 214.18 582.46 208.44 572.65 208.46 569.62 199.09"/>
          <polygon class="cls-1" points="595.46 224.99 592.45 234.37 582.59 234.3 590.59 240.07 587.5 249.42 595.46 243.6 603.41 249.42 600.32 240.07 608.3 234.3 598.46 234.37 595.46 224.99"/>
          <polygon class="cls-1" points="604.99 260.19 601.98 269.54 592.12 269.49 600.12 275.27 597.04 284.61 604.99 278.78 612.93 284.61 609.86 275.27 617.83 269.49 607.99 269.54 604.99 260.19"/>
          <polygon class="cls-1" points="595.52 295.36 592.56 304.78 582.69 304.7 590.71 310.47 587.6 319.82 595.52 313.97 603.51 319.82 600.42 310.47 608.42 304.72 598.56 304.78 595.52 295.36"/>
          <polygon class="cls-1" points="569.62 321.25 566.62 330.63 556.75 330.59 564.75 336.34 561.67 345.7 569.62 339.88 577.55 345.7 574.48 336.34 582.46 330.59 572.65 330.63 569.62 321.25"/>
        </g>
      </g>
      <g id="hc">
        <path class="cls-2" d="M426.59,124.56v-17.49c-6.37-5.45-31.8-16.36-47.29-19.79v12.31c17.73,4.36,39.81,17.17,47.29,24.97Z"/>
        <path class="cls-2" d="M439.48,150.66h15.06c.46-22.07-17.45-35.73-20.02-37.71v21.03c5.76,9.32,4.96,16.68,4.96,16.68Z"/>
        <path class="cls-2" d="M476.97,106.24v18.98c7.57,7.92,12.11,14.13,15.72,25.53h15.95c-4.26-17.43-14.4-31.67-31.66-44.51Z"/>
        <path class="cls-2" d="M467.26,116.65v-17.1c-14.64-9.46-43.56-22.43-72.46-28.46v12.27c27.76,6.73,57.28,21.12,72.46,33.3Z"/>
        <path class="cls-2" d="M508.25,106.27v-16.92c-17.55-11.07-53.69-26.54-96.36-35.55v12.24c40.96,9.9,72.04,24.01,96.36,40.23Z"/>
        <path class="cls-2" d="M519.6,96.55s-.04,18.2-.04,18.2c11.21,8.89,22.03,20.6,29.25,36h16.93c-5.79-19.17-27.46-42.42-46.14-54.2Z"/>
        <path class="cls-2" d="M553.98,95.73v-16.93c-33.58-19.86-83.9-37.32-123.87-44.36v12.21c45.14,9.06,98.91,31.37,123.87,49.09Z"/>
        <path class="cls-2" d="M608.27,150.75h17.74c-12.76-30.54-44.69-55.01-59.61-64.33v17.96c22.59,16.74,30.94,28.7,41.88,46.37Z"/>
        <path class="cls-2" d="M598.98,85.04v-17.54c-27.2-16.64-82.22-41.55-149.22-54.46v12.74c50.97,10.59,115.97,35.89,149.22,59.25Z"/>
        <path class="cls-2" d="M665.82,150.75h19.4c-21.51-36.59-46.11-57.52-72.7-74.81v18.38c19.7,13.84,40.83,34.47,53.3,56.44Z"/>
        <path class="cls-2" d="M366.6,96.16v-11.56c-17.45-3.28-48.12-5.37-61.6-3.62v9.06c20.24-1.05,50.05,2.71,61.6,6.12Z"/>
        <path class="cls-2" d="M291.42,90.86v-8.65c-32.38,3.39-54.6,14.51-67.45,24v7.44c18.35-14.81,43.77-20.94,67.45-22.79Z"/>
        <path class="cls-2" d="M216.49,121.42v-8.42c-29.79,33.47,7.48,61.34,11.45,64.12v-11.44c-20.83-15.75-18.39-34.94-11.45-44.25Z"/>
        <path class="cls-2" d="M239.22,172.77v12.27c20.23,11.2,40.59,18.28,69.54,23.46l-.21-16.63c-19.68-1.19-46.73-6.8-69.34-19.1Z"/>
        <path class="cls-2" d="M318.43,192.39l-.09,17.3c16.94,1.41,32.92,1.83,41.65,1.82v-19.46c-12.86.86-36.69,1.03-41.56.34Z"/>
        <path class="cls-2" d="M382.1,80.37v-11.8c-20.84-4.22-61.26-7.37-85.2-5.13v9.18c31.6-1.17,62.86,2.87,85.2,7.75Z"/>
        <path class="cls-2" d="M297.84,241.86v-18.52c-31.01-2.74-78.68-13.57-108.29-35.3v12.35c32.46,24.49,83.81,38.06,108.29,41.47Z"/>
        <path class="cls-2" d="M178.32,191.11v-12.23c-26.27-24.98-21.14-50.39-4.18-66.76v-7.65c-32.6,29.61-20.66,65.44,4.18,86.64Z"/>
        <path class="cls-2" d="M308.73,224.33v19.18c18.87,2.65,35.24,3.51,51.26,3.51v-21.17c-17.27.1-43.59-.8-51.26-1.52Z"/>
        <path class="cls-2" d="M182.93,97.26v7.21c28.25-21.02,70.62-29.49,100.4-31.11v-8.81c-36.88,2.41-79.24,16.54-100.4,32.71Z"/>
        <path class="cls-2" d="M136.96,202.33v13.26c40.53,36.55,107.2,56.45,147.48,63.39v-20.65c-37.11-4.16-104.18-18.55-147.48-56Z"/>
        <path class="cls-2" d="M399.19,63v-11.64c-26.18-4.77-71.44-9.97-113.82-6.09v9.22c35.62-2.48,85.9,2.15,113.82,8.51Z"/>
        <path class="cls-2" d="M296.37,259.67v21.37c17.97,3.59,47.52,5.26,63.62,5.85v-23.82c-9.6.34-51.64-2.07-63.62-3.41Z"/>
        <path class="cls-2" d="M271.77,55.35v-8.96c-31.51,2.71-87.84,13.93-125.21,39.23v7.26c36.37-24.77,92.66-35.76,125.21-37.52Z"/>
        <path class="cls-2" d="M136.3,100.26v-7.38c-17.1,12.89-59.02,56.37-10.49,111.4v-13.35c-10.79-12.06-36.82-51.12,10.49-90.67Z"/>
        <path class="cls-2" d="M417.41,43.92v-11.95c-31.73-6.23-93.53-11.61-142.12-6.84v9.23c42.95-3.32,104.06,1.52,142.12,9.56Z"/>
        <path class="cls-2" d="M283.15,296.29v22.61c23.92,4.65,53.72,7.54,76.84,8.32v-25.66c-27.67-.47-51.52-1.78-76.84-5.28Z"/>
        <path class="cls-2" d="M270.09,316.75v-21.88c-66.51-9.4-139.79-33.63-185.2-78.15v14.11c53.8,53.59,143.04,78.29,185.2,85.91Z"/>
        <path class="cls-2" d="M109.81,72.81v7.12c44.46-28.3,105.37-40.46,151.9-44.59v-9c-44.73,3.88-110.24,19.11-151.9,46.47Z"/>
        <path class="cls-2" d="M73.66,217.16v-14.54c-17.41-23.74-34.49-70.55,25.67-115.38v-7.32c-67.56,48.3-50.72,107.43-25.67,137.24Z"/>
        <path class="cls-2" d="M27.02,226.3v15.76c51.03,66.2,156.41,105.17,221.93,118.98v-24.17c-68.84-11.65-173.44-45.38-221.93-110.57Z"/>
        <path class="cls-2" d="M436.92,23.05v-12.41c-31.37-6.55-107.63-15.01-174.78-8.02v9.54c56.15-4.94,127.01,1.09,174.78,10.89Z"/>
        <path class="cls-2" d="M248.57,13.32V4c-58.27,5.95-130.62,26.1-172.9,53.73v7.39c53.11-32.57,123.6-47.13,172.9-51.79Z"/>
        <path class="cls-2" d="M263.18,339.17v24.78c14.96,3.81,71.76,11.94,96.81,12.13v-28.41c-38.23-1.21-77.27-5.36-96.81-8.51Z"/>
        <path class="cls-2" d="M64.28,72.62v-7.5c-17.1,11.03-98.08,71.83-48.34,159.57v-17.69c-31.11-64.68,16.31-111.61,48.34-134.37Z"/>
      </g>
    </g>
  </g>
</svg>